<svg width="239" height="299" viewBox="0 0 239 299" fill="none" xmlns="http://www.w3.org/2000/svg">
<path d="M19.887 283.389C19.8571 287.309 21.3831 291.08 24.1301 293.876C26.8772 296.672 30.621 298.265 34.5405 298.304H204.103C208.022 298.265 211.766 296.672 214.513 293.876C217.26 291.08 218.786 287.309 218.756 283.389V84.5195H19.887V283.389ZM39.7739 104.406H198.869V278.417H39.7739V104.406Z" fill="white"/>
<path d="M84.5195 124.293H64.6326V248.587H84.5195V124.293Z" fill="white"/>
<path d="M129.265 124.293H109.378V248.587H129.265V124.293Z" fill="white"/>
<path d="M174.011 124.293H154.124V248.587H174.011V124.293Z" fill="white"/>
<path d="M164.067 44.7456V14.9152C164.067 6.5515 158.171 0 150.644 0H87.9997C80.4725 0 74.576 6.5515 74.576 14.9152V44.7456H0V64.6326H238.643V44.7456H164.067ZM94.463 19.8869H144.18V44.7456H94.463V19.8869Z" fill="white"/>
</svg>
